<svg width="429" height="429" xmlns="http://www.w3.org/2000/svg" xmlns:xlink="http://www.w3.org/1999/xlink" overflow="hidden"><defs><clipPath id="clip0"><rect x="487" y="159" width="429" height="429"/></clipPath></defs><g clip-path="url(#clip0)" transform="translate(-487 -159)"><path d="M488 373.5C488 255.587 583.587 160 701.5 160 819.413 160 915 255.587 915 373.5 915 491.413 819.413 587 701.5 587 583.587 587 488 491.413 488 373.5Z" fill="#92D050" fill-rule="evenodd"/><path d="M823.501 268.845C840.991 268.845 858.483 275.516 871.83 288.862 898.52 315.553 898.52 358.829 871.83 385.519L710.506 546.845 613.847 450.189 775.172 288.862C788.518 275.516 806.011 268.845 823.501 268.845Z" fill="#FFFFFF" fill-rule="evenodd"/><path d="M140.213 19.9896C127.865 7.64203 110.807 0.00488663 91.9653 0.00488663L-0.000325775 0.00488663-0.000325775 136.469 91.9653 136.469C129.649 136.469 160.198 105.921 160.198 68.2368 160.198 49.3953 152.56 32.3374 140.213 19.9896Z" fill="#FFFFFF" fill-rule="evenodd" transform="matrix(-0.707107 -0.707107 -0.707107 0.707107 699.909 343.107)"/></g></svg>