<svg width="725.67" height="229.61" viewBox="0 0 725.67 229.61" xmlns="http://www.w3.org/2000/svg" xmlns:xlink="http://www.w3.org/1999/xlink" id="Layer_1" overflow="hidden"><path d="M632.789 107.022C630.25 102.754 628.004 98.488 626.051 94.22L595.023 94.22C599.189 99.786 607.474 112.206 619.877 131.477L625.639 140.509C624.076 142.561 622.636 144.033 621.318 144.928 620 145.824 618.608 146.272 617.143 146.272 616.394 146.272 615.499 146.028 614.456 145.539 612.861 144.791 611.787 144.416 611.234 144.416 610.484 144.416 609.85 144.66 609.329 145.149 608.808 145.636 608.549 146.222 608.549 146.907 608.549 147.981 609.127 148.867 610.283 149.568 611.44 150.267 612.915 150.617 614.706 150.617 616.531 150.617 618.429 150.178 620.399 149.301 622.371 148.423 624.073 147.286 625.507 145.889 627.429 143.908 629.87 140.669 632.832 136.175L641.42 123.036C648.609 112.097 654.547 103.436 659.232 97.053 659.785 96.369 660.062 95.783 660.062 95.295 660.062 94.677 659.802 94.123 659.282 93.635 658.762 93.148 658.178 92.904 657.529 92.904 657.042 92.904 656.668 93.05 656.408 93.344 656.149 93.637 655.5 94.65 654.461 96.379 651.548 101.436 646.896 108.826 640.505 118.551 637.899 115.132 635.327 111.288 632.789 107.022M577.256 101.399C579.432 99.803 581.691 99.005 584.029 99.005 584.97 99.005 586.156 99.347 587.587 100.031 588.431 100.421 589.194 100.616 589.877 100.616 590.948 100.616 591.842 100.306 592.557 99.689 593.271 99.071 593.629 98.29 593.629 97.344 593.629 96.141 593.035 95.148 591.851 94.365 590.664 93.584 589.162 93.194 587.343 93.194 584.354 93.194 581.171 94.382 577.793 96.757 576.331 97.799 573.731 100.305 569.995 104.278L569.995 94.218 544.946 94.218 545.006 97.05 545.239 116.973 545.064 134.893 545.005 144.854 544.945 147.539 570.044 147.539 569.849 128.106 569.946 109.356C572.644 105.647 575.08 102.994 577.256 101.399M510.523 119.416 504.566 119.221 504.566 104.993C504.566 101.29 504.794 99 505.25 98.123 505.966 96.661 507.756 95.93 510.62 95.93 513.42 95.93 515.275 96.565 516.187 97.83 516.577 98.351 516.805 98.911 516.87 99.512 516.935 100.114 517.001 101.941 517.066 104.993L517.066 119.221 510.523 119.416ZM511.256 122.346 525.903 122.297 537.28 122.297C537.345 111.783 533.569 103.759 525.952 98.226 521.069 94.677 515.617 92.904 509.596 92.904 505.722 92.904 502.011 93.685 498.463 95.247 494.85 96.843 491.725 99.089 489.088 101.986 486.809 104.46 485.019 107.398 483.717 110.799 482.415 114.201 481.764 117.595 481.764 120.981 481.764 124.496 482.495 128.011 483.961 131.528 485.62 135.532 487.996 138.901 491.09 141.634 496.395 146.29 502.516 148.617 509.448 148.617 513.484 148.617 517.628 147.689 521.876 145.833 526.124 143.979 529.68 141.569 532.545 138.607 534.726 136.295 535.816 134.456 535.816 133.088 535.816 132.47 535.636 131.958 535.278 131.55 534.921 131.144 534.465 130.941 533.911 130.941 533.456 130.941 533.032 131.104 532.642 131.428 532.251 131.754 531.616 132.52 530.737 133.723 528.035 137.369 524.838 140.226 521.143 142.292 517.448 144.36 513.712 145.394 509.937 145.394 507.398 145.394 505.786 144.645 505.103 143.148 504.744 142.367 504.566 140.51 504.566 137.581L504.566 122.445 511.256 122.346ZM450.659 119.416 444.702 119.221 444.702 104.993C444.702 101.29 444.931 99 445.387 98.123 446.103 96.661 447.893 95.93 450.758 95.93 453.557 95.93 455.412 96.565 456.323 97.83 456.715 98.351 456.941 98.911 457.008 99.512 457.072 100.114 457.138 101.941 457.202 104.993L457.202 119.221 450.659 119.416ZM451.393 122.346 466.041 122.297 477.418 122.297C477.482 111.783 473.707 103.759 466.09 98.226 461.207 94.677 455.754 92.904 449.733 92.904 445.858 92.904 442.147 93.685 438.6 95.247 434.987 96.843 431.862 99.089 429.225 101.986 426.946 104.46 425.155 107.398 423.854 110.799 422.551 114.201 421.901 117.595 421.901 120.981 421.901 124.496 422.633 128.011 424.098 131.528 425.758 135.532 428.134 138.901 431.227 141.634 436.532 146.29 442.653 148.617 449.586 148.617 453.621 148.617 457.765 147.689 462.013 145.833 466.261 143.979 469.817 141.569 472.682 138.607 474.862 136.295 475.953 134.456 475.953 133.088 475.953 132.47 475.774 131.958 475.417 131.55 475.059 131.144 474.603 130.941 474.05 130.941 473.594 130.941 473.171 131.104 472.779 131.428 472.389 131.754 471.755 132.52 470.876 133.723 468.174 137.369 464.976 140.226 461.28 142.292 457.587 144.36 453.85 145.394 450.074 145.394 447.535 145.394 445.925 144.645 445.24 143.148 444.883 142.367 444.703 140.51 444.703 137.581L444.703 122.445 451.393 122.346ZM382.984 88.508 382.984 94.027 379.42 93.783C379.127 93.751 378.621 93.734 377.906 93.734 376.375 93.734 375.611 94.327 375.611 95.513 375.611 96.737 376.408 97.346 378.004 97.346 378.557 97.346 379.24 97.315 380.055 97.248 381.032 97.183 381.682 97.151 382.008 97.151 382.203 97.151 382.528 97.167 382.985 97.2L382.985 114.663 382.936 124.957 382.936 128.615C382.936 132.453 383.245 135.453 383.864 137.615 384.481 139.778 385.604 141.738 387.233 143.493 390.39 146.973 394.85 148.713 400.612 148.713 406.731 148.713 411.712 147.037 415.553 143.685 417.116 142.318 418.449 140.714 419.557 138.874 420.662 137.036 421.217 135.498 421.217 134.26 421.217 133.024 420.662 132.406 419.557 132.406 418.612 132.406 417.799 133.349 417.116 135.238 416.362 137.223 415.333 138.9 414.023 140.266 412.681 141.633 411.422 142.318 410.245 142.318 409.359 142.318 408.739 141.845 408.378 140.902 408.019 139.958 407.839 138.298 407.839 135.921L407.712 125.775 407.546 106.807 407.595 97.347 409.011 97.347C410.116 97.347 411.956 97.446 414.529 97.64 415.213 97.706 415.781 97.739 416.238 97.739 417.734 97.739 418.484 97.129 418.484 95.909 418.484 94.59 417.767 93.93 416.336 93.93 416.043 93.93 415.701 93.948 415.311 93.98 412.998 94.208 410.428 94.322 407.596 94.322L407.645 92.807 408.182 77.036C401.018 81.201 392.619 85.025 382.984 88.508M305.885 94.221 306.031 104.818 306.178 115.755 306.031 128.402 305.885 147.542 330.836 147.542 330.787 145.443 330.641 131.087 330.738 120.589 330.836 106.868 330.885 104.867C333.033 103.044 335.035 101.677 336.891 100.764 338.746 99.854 340.471 99.398 342.067 99.398 343.792 99.398 344.915 99.919 345.436 100.96 345.696 101.481 345.851 102.076 345.9 102.743 345.948 103.41 345.989 105.485 346.022 108.968L346.07 124.007 345.945 133.968 345.778 147.542 370.583 147.542 370.437 136.165 370.535 113.558C370.535 108.22 370.119 104.371 369.289 102.01 368.459 99.651 366.84 97.673 364.432 96.077 361.241 93.962 357.335 92.904 352.713 92.904 349.262 92.904 345.714 93.58 342.069 94.929 338.422 96.281 334.696 98.307 330.887 101.008L330.887 94.221 305.885 94.221ZM269.557 94.221 269.557 95.736 269.85 112.874 269.752 130.306 269.703 136.702C267.034 138.786 264.861 140.235 263.185 141.048 261.508 141.862 259.889 142.27 258.326 142.27 256.796 142.27 255.754 141.846 255.201 140.999 254.745 140.251 254.518 138.005 254.518 134.261L254.469 128.011 254.42 118.735 254.713 94.222 229.713 94.222 229.957 110.286 229.908 117.904 229.811 129.329C229.811 132.845 230.03 135.555 230.469 137.459 230.908 139.364 231.696 141.065 232.834 142.563 235.891 146.599 240.816 148.618 247.611 148.618 251.317 148.618 254.869 147.999 258.267 146.762 261.664 145.526 265.428 143.491 269.557 140.659L269.557 147.543 294.557 147.543 294.41 132.603 294.557 94.223 269.557 94.223ZM194.264 80.891 194.215 84.211 194.362 95.101 194.41 105.012 194.293 123.42 194.235 137.483 194.117 145.246 194.117 147.541 219.069 147.541 219.069 145.637 218.873 121.516 218.971 107.992 219.02 100.57 219.117 83.382 219.069 80.892 194.264 80.892ZM159.449 95.93C164.95 95.93 170.045 97.902 174.733 101.844 180.526 106.733 183.424 113.103 183.424 120.954 183.424 124.865 182.643 128.45 181.08 131.707 179.094 135.813 176.116 139.104 172.145 141.58 168.01 144.123 163.681 145.393 159.156 145.393 158.766 145.393 158.065 145.361 157.057 145.294L157.203 96.027C158.245 95.963 158.993 95.93 159.449 95.93M139.674 100.471C133.815 105.811 130.885 112.516 130.885 120.588 130.885 124.723 131.715 128.646 133.375 132.357 135.36 136.751 138.274 140.348 142.115 143.148 147.03 146.794 152.565 148.617 158.717 148.617 162.395 148.617 165.927 147.916 169.313 146.516 173.446 144.825 176.946 142.301 179.811 138.949 181.862 136.507 183.48 133.708 184.669 130.55 185.857 127.394 186.451 124.251 186.451 121.126 186.451 116.569 185.442 112.256 183.424 108.188 181.145 103.566 177.841 99.919 173.512 97.25 168.824 94.354 163.86 92.905 158.619 92.905 151.49 93 145.175 95.523 139.674 100.471" fill="#FFFFFF"/><path d="M120.405 80.748C112.035 80.748 105.012 86.806 104.752 94.25 104.713 95.354 105.579 96.25 106.682 96.25 107.788 96.25 108.713 95.354 108.752 94.25 108.935 89.011 114.207 83.796 120.265 84.748 132.09 86.608 128.727 98.703 127.852 100.598 126.115 104.601 121.859 111.851 113.699 125.324L108.341 116.337C108.341 116.337 102.962 107.107 97.191 96.751 91.42 86.395 86.396 81.569 77.724 81.569 71.531 81.569 64.865 88.543 67.653 96.75 69.423 101.959 80.911 118.869 80.911 118.869L85.165 125.754 89.228 132.541 101.511 153 103.12 150.217C103.12 150.217 130.12 106.522 131.95 100.582 135.473 89.153 128.776 80.748 120.405 80.748" fill="#FFFFFF"/></svg>