<svg width="614" height="89" xmlns="http://www.w3.org/2000/svg" xmlns:xlink="http://www.w3.org/1999/xlink" overflow="hidden"><defs><clipPath id="clip0"><rect x="334" y="316" width="614" height="89"/></clipPath><clipPath id="clip1"><rect x="335" y="317" width="612" height="87"/></clipPath><clipPath id="clip2"><rect x="335" y="317" width="612" height="87"/></clipPath></defs><g clip-path="url(#clip0)" transform="translate(-334 -316)"><g clip-path="url(#clip1)"><g clip-path="url(#clip2)"><path d="M629.682 106.497C627.156 102.25 624.921 98.0045 622.977 93.7574L592.102 93.7574C596.247 99.2961 604.492 111.655 616.834 130.832L622.567 139.819C621.012 141.861 619.579 143.326 618.268 144.216 616.956 145.108 615.571 145.554 614.113 145.554 613.368 145.554 612.477 145.311 611.439 144.824 609.852 144.08 608.783 143.707 608.233 143.707 607.487 143.707 606.856 143.95 606.337 144.436 605.819 144.921 605.561 145.504 605.561 146.186 605.561 147.254 606.136 148.136 607.287 148.834 608.438 149.529 609.906 149.878 611.688 149.878 613.504 149.878 615.393 149.441 617.353 148.568 619.315 147.694 621.009 146.563 622.436 145.173 624.349 143.201 626.778 139.978 629.725 135.506L638.271 122.432C645.425 111.547 651.333 102.928 655.995 96.5765 656.546 95.8959 656.821 95.3127 656.821 94.8271 656.821 94.2122 656.563 93.6609 656.045 93.1753 655.528 92.6907 654.947 92.4479 654.301 92.4479 653.816 92.4479 653.444 92.5932 653.185 92.8857 652.928 93.1773 652.282 94.1853 651.248 95.9058 648.349 100.938 643.72 108.292 637.36 117.969 634.767 114.567 632.208 110.742 629.682 106.497M574.422 100.901C576.587 99.313 578.835 98.5189 581.162 98.5189 582.098 98.5189 583.278 98.8592 584.702 99.5399 585.542 99.928 586.301 100.122 586.981 100.122 588.047 100.122 588.936 99.8135 589.648 99.1996 590.358 98.5846 590.715 97.8074 590.715 96.8661 590.715 95.669 590.123 94.6809 588.945 93.9017 587.764 93.1245 586.269 92.7365 584.459 92.7365 581.485 92.7365 578.318 93.9186 574.956 96.282 573.501 97.3189 570.914 99.8125 567.197 103.766L567.197 93.7554 542.271 93.7554 542.33 96.5735 542.562 116.399 542.388 134.231 542.329 144.143 542.27 146.815 567.245 146.815 567.051 127.477 567.148 108.819C569.833 105.128 572.257 102.488 574.422 100.901M508.017 118.83 502.089 118.636 502.089 104.478C502.089 100.793 502.316 98.514 502.769 97.6413 503.482 96.1864 505.263 95.459 508.113 95.459 510.899 95.459 512.745 96.0909 513.653 97.3497 514.041 97.8681 514.268 98.4254 514.332 99.0234 514.397 99.6225 514.463 101.441 514.527 104.478L514.527 118.636 508.017 118.83ZM508.746 121.745 523.321 121.697 534.642 121.697C534.707 111.234 530.949 103.25 523.37 97.7438 518.511 94.2122 513.086 92.4479 507.094 92.4479 503.239 92.4479 499.546 93.225 496.016 94.7794 492.421 96.3675 489.311 98.6025 486.687 101.485 484.419 103.947 482.638 106.871 481.342 110.255 480.047 113.64 479.399 117.018 479.399 120.387 479.399 123.885 480.126 127.383 481.585 130.882 483.236 134.867 485.6 138.219 488.679 140.939 493.958 145.572 500.049 147.887 506.947 147.887 510.963 147.887 515.087 146.964 519.314 145.117 523.541 143.272 527.079 140.874 529.93 137.926 532.101 135.626 533.185 133.796 533.185 132.435 533.185 131.82 533.006 131.31 532.65 130.904 532.295 130.5 531.841 130.298 531.29 130.298 530.837 130.298 530.415 130.46 530.027 130.783 529.638 131.107 529.006 131.869 528.131 133.066 525.443 136.695 522.261 139.538 518.584 141.593 514.908 143.651 511.19 144.68 507.433 144.68 504.907 144.68 503.303 143.935 502.623 142.445 502.266 141.668 502.089 139.82 502.089 136.906L502.089 121.844 508.746 121.745ZM448.446 118.83 442.519 118.636 442.519 104.478C442.519 100.793 442.747 98.514 443.2 97.6413 443.913 96.1864 445.694 95.459 448.545 95.459 451.33 95.459 453.176 96.0909 454.083 97.3497 454.473 97.8681 454.698 98.4254 454.764 99.0234 454.828 99.6225 454.894 101.441 454.957 104.478L454.957 118.636 448.446 118.83ZM449.177 121.745 463.753 121.697 475.074 121.697C475.138 111.234 471.381 103.25 463.802 97.7438 458.943 94.2122 453.516 92.4479 447.525 92.4479 443.669 92.4479 439.976 93.225 436.447 94.7794 432.851 96.3675 429.742 98.6025 427.118 101.485 424.85 103.947 423.068 106.871 421.773 110.255 420.476 113.64 419.83 117.018 419.83 120.387 419.83 123.885 420.558 127.383 422.016 130.882 423.668 134.867 426.032 138.219 429.11 140.939 434.389 145.572 440.48 147.887 447.379 147.887 451.394 147.887 455.518 146.964 459.745 145.117 463.972 143.272 467.51 140.874 470.361 137.926 472.531 135.626 473.616 133.796 473.616 132.435 473.616 131.82 473.438 131.31 473.083 130.904 472.727 130.5 472.273 130.298 471.723 130.298 471.269 130.298 470.848 130.46 470.458 130.783 470.07 131.107 469.439 131.869 468.564 133.066 465.875 136.695 462.693 139.538 459.015 141.593 455.34 143.651 451.622 144.68 447.864 144.68 445.338 144.68 443.736 143.935 443.054 142.445 442.699 141.668 442.52 139.82 442.52 136.906L442.52 121.844 449.177 121.745ZM381.104 88.0735 381.104 93.5654 377.557 93.3226C377.266 93.2907 376.762 93.2738 376.051 93.2738 374.527 93.2738 373.767 93.8639 373.767 95.0441 373.767 96.2621 374.56 96.8681 376.148 96.8681 376.698 96.8681 377.378 96.8372 378.189 96.7706 379.161 96.7059 379.808 96.674 380.133 96.674 380.327 96.674 380.65 96.6899 381.105 96.7228L381.105 114.1 381.056 124.344 381.056 127.984C381.056 131.803 381.363 134.788 381.979 136.939 382.593 139.092 383.711 141.042 385.332 142.789 388.473 146.251 392.911 147.983 398.645 147.983 404.734 147.983 409.691 146.315 413.513 142.98 415.068 141.619 416.395 140.023 417.497 138.192 418.597 136.363 419.149 134.833 419.149 133.601 419.149 132.371 418.597 131.756 417.497 131.756 416.557 131.756 415.748 132.694 415.068 134.574 414.318 136.549 413.294 138.218 411.99 139.577 410.655 140.938 409.402 141.619 408.231 141.619 407.349 141.619 406.732 141.149 406.373 140.21 406.016 139.271 405.837 137.619 405.837 135.254L405.71 125.158 405.545 106.283 405.594 96.8691 407.003 96.8691C408.103 96.8691 409.933 96.9676 412.494 97.1606 413.174 97.2263 413.74 97.2591 414.194 97.2591 415.683 97.2591 416.429 96.6521 416.429 95.4381 416.429 94.1256 415.716 93.4688 414.292 93.4688 414 93.4688 413.66 93.4868 413.272 93.5186 410.97 93.7455 408.413 93.8589 405.595 93.8589L405.644 92.3514 406.178 76.6578C399.049 80.8023 390.691 84.6076 381.104 88.0735M304.383 93.7584 304.529 104.303 304.675 115.187 304.529 127.772 304.383 146.818 329.212 146.818 329.163 144.729 329.018 130.443 329.114 119.997 329.212 106.343 329.26 104.352C331.398 102.538 333.39 101.178 335.237 100.269 337.083 99.3638 338.799 98.91 340.388 98.91 342.104 98.91 343.222 99.4284 343.74 100.464 343.999 100.983 344.153 101.575 344.202 102.239 344.25 102.902 344.29 104.967 344.323 108.433L344.371 123.398 344.247 133.31 344.08 146.818 368.764 146.818 368.618 135.496 368.716 113C368.716 107.689 368.302 103.859 367.476 101.509 366.65 99.1618 365.039 97.1935 362.643 95.6053 359.467 93.5007 355.581 92.4479 350.981 92.4479 347.547 92.4479 344.017 93.1206 340.39 94.4629 336.76 95.8083 333.053 97.8244 329.262 100.512L329.262 93.7584 304.383 93.7584ZM268.234 93.7584 268.234 95.266 268.525 112.32 268.428 129.666 268.379 136.031C265.723 138.105 263.561 139.547 261.893 140.356 260.224 141.166 258.613 141.572 257.058 141.572 255.535 141.572 254.498 141.15 253.948 140.307 253.494 139.562 253.268 137.327 253.268 133.602L253.22 127.383 253.171 118.152 253.462 93.7594 228.585 93.7594 228.828 109.745 228.779 117.325 228.683 128.694C228.683 132.193 228.901 134.889 229.337 136.784 229.774 138.68 230.558 140.372 231.691 141.863 234.733 145.879 239.634 147.888 246.395 147.888 250.083 147.888 253.618 147.272 256.999 146.041 260.379 144.812 264.125 142.787 268.234 139.968L268.234 146.819 293.111 146.819 292.965 131.952 293.111 93.7604 268.234 93.7604ZM193.31 80.4939 193.261 83.7976 193.408 94.6341 193.456 104.496 193.339 122.814 193.281 136.808 193.164 144.533 193.164 146.817 217.993 146.817 217.993 144.922 217.798 120.919 217.896 107.462 217.945 100.076 218.041 82.9726 217.993 80.4949 193.31 80.4949ZM158.666 95.459C164.14 95.459 169.21 97.4213 173.875 101.344 179.64 106.209 182.523 112.548 182.523 120.36 182.523 124.252 181.746 127.819 180.191 131.06 178.215 135.146 175.251 138.421 171.3 140.885 167.185 143.415 162.877 144.679 158.375 144.679 157.987 144.679 157.289 144.647 156.286 144.581L156.431 95.5555C157.468 95.4919 158.212 95.459 158.666 95.459M138.988 99.9777C133.158 105.292 130.242 111.964 130.242 119.996 130.242 124.111 131.068 128.014 132.72 131.707 134.695 136.08 137.595 139.659 141.417 142.445 146.308 146.073 151.816 147.887 157.938 147.887 161.598 147.887 165.112 147.19 168.482 145.797 172.594 144.114 176.077 141.602 178.928 138.267 180.969 135.837 182.579 133.052 183.762 129.909 184.945 126.769 185.536 123.641 185.536 120.531 185.536 115.997 184.532 111.705 182.523 107.657 180.256 103.058 176.968 99.4284 172.66 96.7725 167.995 93.8908 163.056 92.4489 157.84 92.4489 150.746 92.5434 144.462 95.054 138.988 99.9777" fill="#FFFFFF" transform="matrix(1.00496 0 0 1 277.09 245.726)"/><path d="M119.814 80.3516C111.485 80.3516 104.496 86.3798 104.238 93.7873 104.199 94.8858 105.061 95.7775 106.158 95.7775 107.259 95.7775 108.179 94.8858 108.218 93.7873 108.4 88.574 113.646 83.3846 119.675 84.3319 131.441 86.1828 128.095 98.2184 127.224 100.104 125.496 104.087 121.261 111.302 113.141 124.709L107.809 115.766C107.809 115.766 102.456 106.581 96.7138 96.276 90.9712 85.9708 85.9718 81.1685 77.3424 81.1685 71.1798 81.1685 64.5465 88.1083 67.3209 96.275 69.0822 101.458 80.5138 118.285 80.5138 118.285L84.7469 125.137 88.7899 131.89 101.013 152.249 102.614 149.479C102.614 149.479 129.481 105.999 131.302 100.088 134.808 88.7153 128.144 80.3516 119.814 80.3516" fill="#FFFFFF" transform="matrix(1.00496 0 0 1 277.09 245.726)"/></g></g></g></svg>